<?xml version="1.0" encoding="utf-8"?>
<!-- Generator: Adobe Illustrator 16.0.0, SVG Export Plug-In . SVG Version: 6.00 Build 0)  -->
<!DOCTYPE svg PUBLIC "-//W3C//DTD SVG 1.1//EN" "http://www.w3.org/Graphics/SVG/1.1/DTD/svg11.dtd">
<svg version="1.1" xmlns="http://www.w3.org/2000/svg" xmlns:xlink="http://www.w3.org/1999/xlink" x="0px" y="0px"
	 width="800.107px" height="514.813px" viewBox="0 0 800.107 514.813" enable-background="new 0 0 800.107 514.813"
	 xml:space="preserve">
<g id="Background">
</g>
<g id="Objects">
	<g>
		<g>
			<g>
				<g opacity="0.2">
					<path fill="#706F6F" d="M800.107,434.671c-57.354-0.27-101.688-1.66-159.023-2.939c-64.111-1.431-128.459-0.72-192.557,1.089
						c-46.617,1.315-93.265,1.224-139.896,1.18c-18.699-0.017-37.361,0.1-56.053,0.566c-15.887,0.396-31.822,0.483-47.64-1.152
						c-7.517-1.271-14.914-3.064-22.091-5.629c-3.002-1.495-5.906-3.152-8.711-4.985c-1.481-1.374-2.888-2.817-4.234-4.326
						c-2.577-3.838-4.844-7.864-6.854-12.031c-2.869-7.808-4.942-15.868-6.349-24.066c-0.95-9.966-0.956-19.987-0.008-29.952
						c1.336-7.68,3.282-15.229,5.956-22.549c1.935-3.985,4.114-7.836,6.582-11.512c1.679-1.886,3.448-3.682,5.311-5.386
						c1.588-1.031,3.216-1.994,4.89-2.881c5.856-1.918,11.951-3.153,18.048-4.112c24.731-2.741,49.693-2.154,74.539-2.165
						c32.879-0.014,65.757-0.682,98.635-0.063c33.114,0.624,66.121,1.514,99.252,1.065c16.399-0.222,32.797-0.531,49.196-0.706
						c7.654-0.082,15.309-0.091,22.963-0.129c9.268-0.046,18.367-1.42,27.535-2.684c28.045-3.865,56.672-19.332,74.235-41.663
						c17.368-22.083,29.755-48.373,34.204-76.268c4.156-26.058,4.315-53.287-5.049-78.365
						c-10.111-27.081-27.297-49.893-52.475-64.717c-26.311-15.49-58.312-18.602-88.152-20.349
						c-23.135-1.354-46.3-0.594-69.455-0.624c-20.938-0.027-41.877,0.441-62.813,0.634c-24.507,0.226-48.966-0.267-73.468-0.571
						c-56.452-0.704-112.932,0.817-169.388,0.841C102.19,20.246,55.067,20.38,0.027,21.361c0.29,0.413-0.002,1.17-0.003,1.772
						C0.006,49.322,0,75.259,0.027,101.365c58.953-1.031,112.099-1.139,171.06-1.146c61.497-0.008,122.947-1.376,184.442-0.28
						c32.957,0.587,65.93-0.339,98.886-0.587c32.603-0.245,65.517-1.437,97.974,2.285c7.979,1.237,15.921,2.857,23.542,5.496
						c2.961,1.499,5.821,3.166,8.582,5.005c2.31,2.065,4.483,4.264,6.538,6.581c2.002,3.005,3.806,6.124,5.418,9.354
						c1.754,4.959,3.099,10.034,4.072,15.202c0.589,7.195,0.52,14.403-0.131,21.592c-1.547,8.641-3.9,17.09-7.002,25.301
						c-2.731,5.849-5.832,11.523-9.451,16.863c-2.215,2.502-4.566,4.863-7.062,7.087c-2.93,1.952-5.97,3.709-9.117,5.286
						c-5.037,1.761-10.188,3.097-15.434,4.069c-12.331,1.055-24.812,0.546-37.164,0.687c-16.409,0.186-32.816,0.501-49.225,0.715
						c-33.13,0.434-66.146-0.616-99.259-1.188c-32.683-0.564-65.372,0.152-98.056,0.134c-29.778-0.017-59.017,0.353-88.572,4.437
						c-24.521,3.389-47.078,12.988-64.766,30.666c-16.175,16.166-26.9,37.682-32.968,59.525
						c-12.006,43.218-7.35,92.239,13.434,131.998c5.076,9.712,11.991,18.817,19.488,26.742
						c11.896,12.573,26.852,19.785,42.491,26.314c13.873,5.791,28.836,7.644,43.622,9.535c12.161,1.557,24.469,1.825,36.715,1.771
						c26.802-0.12,53.581-0.819,80.392-0.798c32.878,0.025,65.756-0.012,98.631-0.523c64.859-1.01,129.654-2.321,194.531-2.16
						c31.121,0.078,62.225,1.389,93.334,2.083c31.045,0.693,64.007,0.708,95.057,1.179"/>
				</g>
				<g>
					<path fill="#706F6F" d="M800.027,425.749c-59.107-0.2-110.854-1.698-169.943-3.017c-64.111-1.431-128.459-0.72-192.557,1.089
						c-46.617,1.315-93.265,1.224-139.896,1.18c-18.699-0.017-37.361,0.1-56.053,0.566c-15.887,0.396-31.822,0.483-47.64-1.152
						c-7.517-1.271-14.914-3.064-22.091-5.629c-3.002-1.495-5.906-3.152-8.711-4.985c-1.481-1.374-2.888-2.817-4.234-4.326
						c-2.577-3.838-4.844-7.864-6.854-12.031c-2.869-7.808-4.942-15.868-6.349-24.066c-0.95-9.966-0.956-19.987-0.008-29.952
						c1.336-7.68,3.282-15.229,5.956-22.549c1.935-3.985,4.114-7.836,6.582-11.512c1.679-1.886,3.448-3.682,5.311-5.386
						c1.588-1.031,3.216-1.994,4.89-2.881c5.856-1.918,11.951-3.153,18.048-4.112c24.731-2.741,49.693-2.154,74.539-2.165
						c32.879-0.014,65.757-0.682,98.635-0.063c33.115,0.624,66.121,1.514,99.252,1.065c16.399-0.222,32.797-0.531,49.196-0.706
						c7.654-0.082,15.309-0.091,22.963-0.129c9.268-0.046,18.367-1.42,27.535-2.684c28.045-3.865,56.672-19.332,74.235-41.663
						c17.368-22.083,29.755-48.373,34.204-76.268c4.156-26.058,4.315-53.287-5.049-78.365
						c-10.111-27.081-27.297-49.893-52.475-64.717c-26.311-15.49-58.312-18.602-88.152-20.349
						c-23.135-1.354-46.3-0.594-69.455-0.624c-20.938-0.027-41.877,0.441-62.813,0.634c-24.507,0.226-48.966-0.267-73.468-0.571
						c-56.452-0.704-112.932,0.817-169.388,0.841c-52.489,0.022-93.73,0.1-146.211,0.973c0,26.939-0.062,53.314,0,80.002
						c57.117-0.95,102.936-0.971,160.06-0.978c61.497-0.008,122.947-1.376,184.442-0.28c32.957,0.587,65.93-0.339,98.886-0.587
						c32.603-0.245,65.517-1.437,97.974,2.285c7.979,1.237,15.921,2.857,23.542,5.496c2.961,1.499,5.821,3.166,8.582,5.005
						c2.31,2.065,4.483,4.264,6.538,6.581c2.002,3.005,3.806,6.124,5.418,9.354c1.754,4.959,3.099,10.034,4.072,15.202
						c0.589,7.195,0.52,14.403-0.131,21.592c-1.547,8.641-3.9,17.09-7.002,25.301c-2.731,5.849-5.832,11.523-9.451,16.863
						c-2.215,2.502-4.566,4.863-7.062,7.087c-2.93,1.952-5.97,3.709-9.117,5.286c-5.037,1.761-10.188,3.098-15.434,4.069
						c-12.331,1.055-24.812,0.546-37.164,0.687c-16.409,0.186-32.816,0.501-49.225,0.715c-33.13,0.433-66.146-0.617-99.259-1.188
						c-32.683-0.564-65.372,0.152-98.056,0.134c-29.778-0.016-59.017,0.353-88.572,4.437c-24.521,3.388-47.078,12.987-64.766,30.665
						c-16.175,16.166-26.9,37.682-32.968,59.525c-12.006,43.218-7.35,92.239,13.434,131.998
						c5.076,9.712,11.991,18.817,19.488,26.742c11.896,12.573,26.852,19.785,42.491,26.314c13.873,5.791,28.836,7.644,43.622,9.535
						c12.161,1.557,24.469,1.825,36.715,1.771c26.802-0.12,53.581-0.819,80.392-0.798c32.878,0.025,65.756-0.012,98.631-0.523
						c64.859-1.01,129.654-2.321,194.531-2.16c31.121,0.078,62.225,1.389,93.334,2.083c31.045,0.693,62.11,0.681,93.16,1.151
						c7.232,0.11,5.664,0.113,12.896,0.151"/>
				</g>
				<g>
					
						<path fill="none" stroke="#FFFFFF" stroke-width="4" stroke-linecap="round" stroke-linejoin="round" stroke-dasharray="20.1278,25.1598" d="
						M20.816,51.952c54.908-0.734,100.967-0.734,153.211-0.734c57.574,0,107.5-1.896,165-0.396c31.523,0.822,91-0.58,114.5-0.5
						c28.504,0.097,81.002-2.5,118.5,8c62.996,19.499,72.277,96.883,39.279,153.88c-18,31.499-48.677,42.793-81.675,42.793
						c-49.497,0-99.606,2.237-150.104,0.326c-40.58-1.535-80.002-0.5-120.5-0.5c-28.499,0-68.501-1.027-97,6.473
						c-67.497,16.499-73.374,137.693-26.876,181.191c34.499,29.998,92.996,22.498,134.993,22.498
						c55.498,0,111.886,0.338,167.383-1.162c52.498-1.5,105.502-1.5,159.5-1.5c41.998,0,88.002,2.5,130,2.5
						c23.371,0,40.738,0.551,61.012,0.834"/>
				</g>
			</g>
			<g>
				<g>
					<g>
						<path fill="#BE1622" d="M429.472,30.336c0,2.209-1.791,4-4,4h-56.667c-2.209,0-4-1.791-4-4v-8c0-2.209,1.791-4,4-4h56.667
							c2.209,0,4,1.791,4,4V30.336z"/>
						<path fill="#BE1622" d="M415.305,18.002c0,2.209-1.791,4-4,4h-28.333c-2.209,0-4-1.791-4-4v-14c0-2.209,1.791-4,4-4h28.333
							c2.209,0,4,1.791,4,4V18.002z"/>
						<path fill="#95E3DC" d="M395.138,15.849c0,1.355-0.591,2.454-1.321,2.454h-9.358c-0.729,0-1.321-1.099-1.321-2.454V7.257
							c0-1.355,0.591-2.454,1.321-2.454h9.358c0.729,0,1.321,1.099,1.321,2.454V15.849z"/>
						<path fill="#95E3DC" d="M411.139,15.849c0,1.355-0.592,2.454-1.321,2.454h-9.358c-0.729,0-1.32-1.099-1.32-2.454V7.257
							c0-1.355,0.591-2.454,1.32-2.454h9.358c0.729,0,1.321,1.099,1.321,2.454V15.849z"/>
						
							<circle fill="#1D1D1B" stroke="#1D1D1B" stroke-width="1.9728" stroke-linecap="round" stroke-linejoin="round" stroke-miterlimit="10" cx="381.388" cy="35.669" r="6"/>
						
							<circle fill="#1D1D1B" stroke="#1D1D1B" stroke-width="1.9728" stroke-linecap="round" stroke-linejoin="round" stroke-miterlimit="10" cx="412.889" cy="35.669" r="6"/>
						<circle fill="#878787" cx="381.388" cy="35.669" r="3"/>
						<circle fill="#878787" cx="412.889" cy="35.669" r="3"/>
					</g>
					<g>
						<path fill="#FFDE00" d="M428.777,26.071c3.334,0,3.334-4,0-4S425.443,26.071,428.777,26.071L428.777,26.071z"/>
					</g>
				</g>
				<g>
					<g>
						<path fill="#FFC214" d="M321.495,271.463c0,2.209-1.791,4-4,4h-56.667c-2.209,0-4-1.791-4-4v-8c0-2.209,1.791-4,4-4h56.667
							c2.209,0,4,1.791,4,4V271.463z"/>
						<path fill="#FFC214" d="M307.328,259.13c0,2.21-1.791,4-4,4h-28.333c-2.209,0-4-1.79-4-4v-14c0-2.21,1.791-4,4-4h28.333
							c2.209,0,4,1.79,4,4V259.13z"/>
						<path fill="#42E3DB" d="M287.162,256.977c0,1.355-0.591,2.454-1.321,2.454h-9.358c-0.729,0-1.321-1.099-1.321-2.454v-8.592
							c0-1.355,0.591-2.454,1.321-2.454h9.358c0.729,0,1.321,1.099,1.321,2.454V256.977z"/>
						<path fill="#42E3DB" d="M303.162,256.977c0,1.355-0.591,2.454-1.321,2.454h-9.358c-0.73,0-1.321-1.099-1.321-2.454v-8.592
							c0-1.355,0.591-2.454,1.321-2.454h9.358c0.729,0,1.321,1.099,1.321,2.454V256.977z"/>
						
							<circle fill="#1D1D1B" stroke="#1D1D1B" stroke-width="1.9728" stroke-linecap="round" stroke-linejoin="round" stroke-miterlimit="10" cx="273.412" cy="276.797" r="6"/>
						
							<circle fill="#1D1D1B" stroke="#1D1D1B" stroke-width="1.9728" stroke-linecap="round" stroke-linejoin="round" stroke-miterlimit="10" cx="304.912" cy="276.797" r="6"/>
						<circle fill="#878787" cx="273.412" cy="276.797" r="3"/>
						<circle fill="#878787" cx="304.912" cy="276.797" r="3"/>
					</g>
					<g>
						<path fill="#F39200" d="M321.027,268.071c3.334,0,3.334-4,0-4S317.693,268.071,321.027,268.071L321.027,268.071z"/>
					</g>
				</g>
				<g>
					<g>
						<path fill="#1D71B8" d="M738.641,443.485c0,2.209-1.791,4-4,4h-56.668c-2.209,0-4-1.791-4-4v-8c0-2.209,1.791-4,4-4h56.668
							c2.209,0,4,1.791,4,4V443.485z"/>
						<path fill="#1D71B8" d="M724.473,431.151c0,2.21-1.79,4-4,4h-28.332c-2.21,0-4-1.79-4-4v-14c0-2.209,1.79-4,4-4h28.332
							c2.21,0,4,1.791,4,4V431.151z"/>
						<path fill="#95E3DC" d="M704.307,428.999c0,1.354-0.592,2.453-1.32,2.453h-9.359c-0.729,0-1.32-1.099-1.32-2.453v-8.592
							c0-1.355,0.592-2.455,1.32-2.455h9.359c0.729,0,1.32,1.1,1.32,2.455V428.999z"/>
						<path fill="#95E3DC" d="M720.307,428.999c0,1.354-0.592,2.453-1.32,2.453h-9.358c-0.729,0-1.321-1.099-1.321-2.453v-8.592
							c0-1.355,0.592-2.455,1.321-2.455h9.358c0.729,0,1.32,1.1,1.32,2.455V428.999z"/>
						
							<circle fill="#1D1D1B" stroke="#1D1D1B" stroke-width="1.9728" stroke-linecap="round" stroke-linejoin="round" stroke-miterlimit="10" cx="690.557" cy="448.818" r="6"/>
						
							<circle fill="#1D1D1B" stroke="#1D1D1B" stroke-width="1.9728" stroke-linecap="round" stroke-linejoin="round" stroke-miterlimit="10" cx="722.057" cy="448.818" r="6"/>
						<circle fill="#878787" cx="690.557" cy="448.818" r="3"/>
						<circle fill="#878787" cx="722.057" cy="448.818" r="3"/>
					</g>
					<g>
						<path fill="#FFDE00" d="M738.527,439.821c3.334,0,3.334-4,0-4S735.193,439.821,738.527,439.821L738.527,439.821z"/>
					</g>
				</g>
			</g>
		</g>
	</g>
</g>
</svg>
