<svg enable-background="new 0 0 800.107 514.813" height="514.813" viewBox="0 0 800.107 514.813" width="800.107" xmlns="http://www.w3.org/2000/svg"><path d="m800.107 434.671c-57.354-.27-101.688-1.66-159.023-2.939-64.111-1.431-128.459-.72-192.557 1.089-46.617 1.315-93.265 1.224-139.896 1.18-18.699-.017-37.361.1-56.053.566-15.887.396-31.822.483-47.64-1.152-7.517-1.271-14.914-3.064-22.091-5.629-3.002-1.495-5.906-3.152-8.711-4.985-1.481-1.374-2.888-2.817-4.234-4.326-2.577-3.838-4.844-7.864-6.854-12.031-2.869-7.808-4.942-15.868-6.349-24.066-.95-9.966-.956-19.987-.008-29.952 1.336-7.68 3.282-15.229 5.956-22.549 1.935-3.985 4.114-7.836 6.582-11.512 1.679-1.886 3.448-3.682 5.311-5.386 1.588-1.031 3.216-1.994 4.89-2.881 5.856-1.918 11.951-3.153 18.048-4.112 24.731-2.741 49.693-2.154 74.539-2.165 32.879-.014 65.757-.682 98.635-.063 33.114.624 66.121 1.514 99.252 1.065 16.399-.222 32.797-.531 49.196-.706 7.654-.082 15.309-.091 22.963-.129 9.268-.046 18.367-1.42 27.535-2.684 28.045-3.865 56.672-19.332 74.235-41.663 17.368-22.083 29.755-48.373 34.204-76.268 4.156-26.058 4.315-53.287-5.049-78.365-10.111-27.081-27.297-49.893-52.475-64.717-26.311-15.49-58.312-18.602-88.152-20.349-23.135-1.354-46.3-.594-69.455-.624-20.938-.027-41.877.441-62.813.634-24.507.226-48.966-.267-73.468-.571-56.452-.704-112.932.817-169.388.841-55.047.024-102.17.158-157.21 1.139.29.413-.002 1.17-.003 1.772-.018 26.189-.024 52.126.003 78.232 58.953-1.031 112.099-1.139 171.06-1.146 61.497-.008 122.947-1.376 184.442-.28 32.957.587 65.93-.339 98.886-.587 32.603-.245 65.517-1.437 97.974 2.285 7.979 1.237 15.921 2.857 23.542 5.496 2.961 1.499 5.821 3.166 8.582 5.005 2.31 2.065 4.483 4.264 6.538 6.581 2.002 3.005 3.806 6.124 5.418 9.354 1.754 4.959 3.099 10.034 4.072 15.202.589 7.195.52 14.403-.131 21.592-1.547 8.641-3.9 17.09-7.002 25.301-2.731 5.849-5.832 11.523-9.451 16.863-2.215 2.502-4.566 4.863-7.062 7.087-2.93 1.952-5.97 3.709-9.117 5.286-5.037 1.761-10.188 3.097-15.434 4.069-12.331 1.055-24.812.546-37.164.687-16.409.186-32.816.501-49.225.715-33.13.434-66.146-.616-99.259-1.188-32.683-.564-65.372.152-98.056.134-29.778-.017-59.017.353-88.572 4.437-24.521 3.389-47.078 12.988-64.766 30.666-16.175 16.166-26.9 37.682-32.968 59.525-12.006 43.218-7.35 92.239 13.434 131.998 5.076 9.712 11.991 18.817 19.488 26.742 11.896 12.573 26.852 19.785 42.491 26.314 13.873 5.791 28.836 7.644 43.622 9.535 12.161 1.557 24.469 1.825 36.715 1.771 26.802-.12 53.581-.819 80.392-.798 32.878.025 65.756-.012 98.631-.523 64.859-1.01 129.654-2.321 194.531-2.16 31.121.078 62.225 1.389 93.334 2.083 31.045.693 64.007.708 95.057 1.179" fill="#706f6f" opacity=".2"/><path d="m800.027 425.749c-59.107-.2-110.854-1.698-169.943-3.017-64.111-1.431-128.459-.72-192.557 1.089-46.617 1.315-93.265 1.224-139.896 1.18-18.699-.017-37.361.1-56.053.566-15.887.396-31.822.483-47.64-1.152-7.517-1.271-14.914-3.064-22.091-5.629-3.002-1.495-5.906-3.152-8.711-4.985-1.481-1.374-2.888-2.817-4.234-4.326-2.577-3.838-4.844-7.864-6.854-12.031-2.869-7.808-4.942-15.868-6.349-24.066-.95-9.966-.956-19.987-.008-29.952 1.336-7.68 3.282-15.229 5.956-22.549 1.935-3.985 4.114-7.836 6.582-11.512 1.679-1.886 3.448-3.682 5.311-5.386 1.588-1.031 3.216-1.994 4.89-2.881 5.856-1.918 11.951-3.153 18.048-4.112 24.731-2.741 49.693-2.154 74.539-2.165 32.879-.014 65.757-.682 98.635-.063 33.115.624 66.121 1.514 99.252 1.065 16.399-.222 32.797-.531 49.196-.706 7.654-.082 15.309-.091 22.963-.129 9.268-.046 18.367-1.42 27.535-2.684 28.045-3.865 56.672-19.332 74.235-41.663 17.368-22.083 29.755-48.373 34.204-76.268 4.156-26.058 4.315-53.287-5.049-78.365-10.111-27.081-27.297-49.893-52.475-64.717-26.311-15.49-58.312-18.602-88.152-20.349-23.135-1.354-46.3-.594-69.455-.624-20.938-.027-41.877.441-62.813.634-24.507.226-48.966-.267-73.468-.571-56.452-.704-112.932.817-169.388.841-52.489.022-93.73.1-146.211.973 0 26.939-.062 53.314 0 80.002 57.117-.95 102.936-.971 160.06-.978 61.497-.008 122.947-1.376 184.442-.28 32.957.587 65.93-.339 98.886-.587 32.603-.245 65.517-1.437 97.974 2.285 7.979 1.237 15.921 2.857 23.542 5.496 2.961 1.499 5.821 3.166 8.582 5.005 2.31 2.065 4.483 4.264 6.538 6.581 2.002 3.005 3.806 6.124 5.418 9.354 1.754 4.959 3.099 10.034 4.072 15.202.589 7.195.52 14.403-.131 21.592-1.547 8.641-3.9 17.09-7.002 25.301-2.731 5.849-5.832 11.523-9.451 16.863-2.215 2.502-4.566 4.863-7.062 7.087-2.93 1.952-5.97 3.709-9.117 5.286-5.037 1.761-10.188 3.098-15.434 4.069-12.331 1.055-24.812.546-37.164.687-16.409.186-32.816.501-49.225.715-33.13.433-66.146-.617-99.259-1.188-32.683-.564-65.372.152-98.056.134-29.778-.016-59.017.353-88.572 4.437-24.521 3.388-47.078 12.987-64.766 30.665-16.175 16.166-26.9 37.682-32.968 59.525-12.006 43.218-7.35 92.239 13.434 131.998 5.076 9.712 11.991 18.817 19.488 26.742 11.896 12.573 26.852 19.785 42.491 26.314 13.873 5.791 28.836 7.644 43.622 9.535 12.161 1.557 24.469 1.825 36.715 1.771 26.802-.12 53.581-.819 80.392-.798 32.878.025 65.756-.012 98.631-.523 64.859-1.01 129.654-2.321 194.531-2.16 31.121.078 62.225 1.389 93.334 2.083 31.045.693 62.11.681 93.16 1.151 7.232.11 5.664.113 12.896.151" fill="#706f6f"/><path d="m20.816 51.952c54.908-.734 100.967-.734 153.211-.734 57.574 0 107.5-1.896 165-.396 31.523.822 91-.58 114.5-.5 28.504.097 81.002-2.5 118.5 8 62.996 19.499 72.277 96.883 39.279 153.88-18 31.499-48.677 42.793-81.675 42.793-49.497 0-99.606 2.237-150.104.326-40.58-1.535-80.002-.5-120.5-.5-28.499 0-68.501-1.027-97 6.473-67.497 16.499-73.374 137.693-26.876 181.191 34.499 29.998 92.996 22.498 134.993 22.498 55.498 0 111.886.338 167.383-1.162 52.498-1.5 105.502-1.5 159.5-1.5 41.998 0 88.002 2.5 130 2.5 23.371 0 40.738.551 61.012.834" style="fill:none;stroke:#fff;stroke-width:4;stroke-linecap:round;stroke-linejoin:round;stroke-dasharray:20.1278 25.1598"/><path d="m429.472 30.336c0 2.209-1.791 4-4 4h-56.667c-2.209 0-4-1.791-4-4v-8c0-2.209 1.791-4 4-4h56.667c2.209 0 4 1.791 4 4z" fill="#be1622"/><path d="m415.305 18.002c0 2.209-1.791 4-4 4h-28.333c-2.209 0-4-1.791-4-4v-14c0-2.209 1.791-4 4-4h28.333c2.209 0 4 1.791 4 4z" fill="#be1622"/><path d="m395.138 15.849c0 1.355-.591 2.454-1.321 2.454h-9.358c-.729 0-1.321-1.099-1.321-2.454v-8.592c0-1.355.591-2.454 1.321-2.454h9.358c.729 0 1.321 1.099 1.321 2.454z" fill="#95e3dc"/><path d="m411.139 15.849c0 1.355-.592 2.454-1.321 2.454h-9.358c-.729 0-1.32-1.099-1.32-2.454v-8.592c0-1.355.591-2.454 1.32-2.454h9.358c.729 0 1.321 1.099 1.321 2.454z" fill="#95e3dc"/><circle cx="381.388" cy="35.669" r="6" style="fill:#1d1d1b;stroke:#1d1d1b;stroke-width:1.9728;stroke-linecap:round;stroke-linejoin:round;stroke-miterlimit:10"/><circle cx="412.889" cy="35.669" r="6" style="fill:#1d1d1b;stroke:#1d1d1b;stroke-width:1.9728;stroke-linecap:round;stroke-linejoin:round;stroke-miterlimit:10"/><circle cx="381.388" cy="35.669" fill="#878787" r="3"/><circle cx="412.889" cy="35.669" fill="#878787" r="3"/><path d="m428.777 26.071c3.334 0 3.334-4 0-4s-3.334 4 0 4z" fill="#ffde00"/><path d="m321.495 271.463c0 2.209-1.791 4-4 4h-56.667c-2.209 0-4-1.791-4-4v-8c0-2.209 1.791-4 4-4h56.667c2.209 0 4 1.791 4 4z" fill="#ffc214"/><path d="m307.328 259.13c0 2.21-1.791 4-4 4h-28.333c-2.209 0-4-1.79-4-4v-14c0-2.21 1.791-4 4-4h28.333c2.209 0 4 1.79 4 4z" fill="#ffc214"/><path d="m287.162 256.977c0 1.355-.591 2.454-1.321 2.454h-9.358c-.729 0-1.321-1.099-1.321-2.454v-8.592c0-1.355.591-2.454 1.321-2.454h9.358c.729 0 1.321 1.099 1.321 2.454z" fill="#42e3db"/><path d="m303.162 256.977c0 1.355-.591 2.454-1.321 2.454h-9.358c-.73 0-1.321-1.099-1.321-2.454v-8.592c0-1.355.591-2.454 1.321-2.454h9.358c.729 0 1.321 1.099 1.321 2.454z" fill="#42e3db"/><circle cx="273.412" cy="276.797" r="6" style="fill:#1d1d1b;stroke:#1d1d1b;stroke-width:1.9728;stroke-linecap:round;stroke-linejoin:round;stroke-miterlimit:10"/><circle cx="304.912" cy="276.797" r="6" style="fill:#1d1d1b;stroke:#1d1d1b;stroke-width:1.9728;stroke-linecap:round;stroke-linejoin:round;stroke-miterlimit:10"/><circle cx="273.412" cy="276.797" fill="#878787" r="3"/><circle cx="304.912" cy="276.797" fill="#878787" r="3"/><path d="m321.027 268.071c3.334 0 3.334-4 0-4s-3.334 4 0 4z" fill="#f39200"/><path d="m738.641 443.485c0 2.209-1.791 4-4 4h-56.668c-2.209 0-4-1.791-4-4v-8c0-2.209 1.791-4 4-4h56.668c2.209 0 4 1.791 4 4z" fill="#1d71b8"/><path d="m724.473 431.151c0 2.21-1.79 4-4 4h-28.332c-2.21 0-4-1.79-4-4v-14c0-2.209 1.79-4 4-4h28.332c2.21 0 4 1.791 4 4z" fill="#1d71b8"/><path d="m704.307 428.999c0 1.354-.592 2.453-1.32 2.453h-9.359c-.729 0-1.32-1.099-1.32-2.453v-8.592c0-1.355.592-2.455 1.32-2.455h9.359c.729 0 1.32 1.1 1.32 2.455z" fill="#95e3dc"/><path d="m720.307 428.999c0 1.354-.592 2.453-1.32 2.453h-9.358c-.729 0-1.321-1.099-1.321-2.453v-8.592c0-1.355.592-2.455 1.321-2.455h9.358c.729 0 1.32 1.1 1.32 2.455z" fill="#95e3dc"/><circle cx="690.557" cy="448.818" r="6" style="fill:#1d1d1b;stroke:#1d1d1b;stroke-width:1.9728;stroke-linecap:round;stroke-linejoin:round;stroke-miterlimit:10"/><circle cx="722.057" cy="448.818" r="6" style="fill:#1d1d1b;stroke:#1d1d1b;stroke-width:1.9728;stroke-linecap:round;stroke-linejoin:round;stroke-miterlimit:10"/><circle cx="690.557" cy="448.818" fill="#878787" r="3"/><circle cx="722.057" cy="448.818" fill="#878787" r="3"/><path d="m738.527 439.821c3.334 0 3.334-4 0-4s-3.334 4 0 4z" fill="#ffde00"/></svg>